<?xml version="1.0" encoding="utf-8"?>
<!-- Generator: Adobe Illustrator 25.1.0, SVG Export Plug-In . SVG Version: 6.00 Build 0)  -->
<svg version="1.1" id="Capa_1" xmlns="http://www.w3.org/2000/svg" xmlns:xlink="http://www.w3.org/1999/xlink" x="0px" y="0px"
	 viewBox="0 0 57 22" style="enable-background:new 0 0 57 22;" xml:space="preserve">
<style type="text/css">
	.st0{clip-path:url(#SVGID_2_);}
	.st1{clip-path:url(#SVGID_4_);fill:url(#SVGID_5_);}
	.st2{clip-path:url(#SVGID_7_);fill:url(#SVGID_8_);}
	.st3{fill:#FFFFFF;}
	.st4{font-family:'AmherstPlain';}
	.st5{font-size:6.6092px;}
	.st6{clip-path:url(#SVGID_10_);}
	.st7{fill:#404041;}
	.st8{font-size:7.3373px;}
	.st9{font-size:5.1361px;}
	.st10{clip-path:url(#SVGID_12_);}
	.st11{fill:#58595B;}
	.st12{font-family:'ArnoPro-Regular';}
	.st13{font-size:4.2048px;}
</style>
<g id="Ilustración_2_1_">
	<g>
		<defs>
			<rect id="SVGID_1_" width="56.6" height="22.1"/>
		</defs>
		<clipPath id="SVGID_2_">
			<use xlink:href="#SVGID_1_"  style="overflow:visible;"/>
		</clipPath>
		<g class="st0">
			<defs>
				<path id="SVGID_3_" d="M39.4,0.6c-0.9,0-1.6,0.7-1.6,1.6v12.5c0,0.9,0.7,1.6,1.6,1.6h15c0.9,0,1.6-0.7,1.6-1.6V8.9
					c-0.9,0-1.8,0-2.7,0.1c0,0-0.3-0.3-0.2-0.4c0.1-0.1,0-1.1,0-1.1s0-0.5-0.4-0.9c-0.4-0.4-1.3,0-1.3,0c-1.1,0.6-0.6,0.9-0.6,2.1
					c0,0-0.1,0.3-0.4,0.3c-0.2,0-0.8-0.1-1.3-0.2C48.5,8.7,48,8.7,48,8.7l0.1-3.3c0-0.5-0.2-0.7,0.4-0.5c0.5,0.5,0.6,0.4,1.3,0.4
					c0.9-0.5,0.8-0.5,0.9-1.6c-0.1-0.7-0.6-0.9-1.2-0.8c-0.6,0.1-1,0.5-1.5,0l0-2c0-0.1,0-0.3,0.1-0.4H39.4z"/>
			</defs>
			<clipPath id="SVGID_4_">
				<use xlink:href="#SVGID_3_"  style="overflow:visible;"/>
			</clipPath>
			
				<linearGradient id="SVGID_5_" gradientUnits="userSpaceOnUse" x1="-105.4366" y1="-36.8661" x2="-105.3031" y2="-36.8661" gradientTransform="matrix(95.958 -81.0606 -81.0606 -95.958 7168.0215 -12069.1152)">
				<stop  offset="0" style="stop-color:#5FBA46"/>
				<stop  offset="1" style="stop-color:#9BCA3B"/>
			</linearGradient>
			<polygon class="st1" points="30,7.2 48.5,-8.4 63.9,9.8 45.4,25.4 			"/>
		</g>
		<g class="st0">
			<defs>
				<path id="SVGID_6_" d="M48.9,0c-0.4,0-0.5,0.2-0.5,0.5l-0.1,2c0.4,0.5,0.9,0,1.5,0c0.6-0.1,1.1,0.1,1.2,0.8
					c-0.1,1.1,0.1,1.1-0.9,1.6c-0.7,0-0.8,0.1-1.3-0.4c-0.6-0.2-0.4,0-0.4,0.5l-0.2,3.3c0,0,0.5,0,1.1,0.1c0.5,0.1,1.2,0.2,1.3,0.2
					c0.3,0,0.5-0.3,0.5-0.3c0-1.2-0.5-1.4,0.6-2.1c0,0,0.9-0.3,1.3,0c0.4,0.4,0.4,0.9,0.4,0.9s0,1,0,1.1c-0.1,0.1,0.2,0.4,0.2,0.4
					c1-0.1,1.9,0,3,0c0-3.1,0.1-5.6,0.1-7.5c0,0,0,0,0,0v0c0-0.3-0.7-1-1-1c-0.9,0-1.9,0-3-0.1C51.8,0,50.8,0,49.9,0
					C49.6,0,49.3,0,48.9,0"/>
			</defs>
			<clipPath id="SVGID_7_">
				<use xlink:href="#SVGID_6_"  style="overflow:visible;"/>
			</clipPath>
			
				<linearGradient id="SVGID_8_" gradientUnits="userSpaceOnUse" x1="-107.0004" y1="-37.0431" x2="-106.8669" y2="-37.0431" gradientTransform="matrix(69.3207 -49.5125 -49.5125 -69.3207 5630.9048 -7857.9727)">
				<stop  offset="0" style="stop-color:#5FBA46"/>
				<stop  offset="1" style="stop-color:#9BCA3B"/>
			</linearGradient>
			<polygon class="st2" points="44.1,2.9 53.8,-4 60.8,5.7 51.1,12.6 			"/>
		</g>
		<g class="st0">
			<text transform="matrix(1 0 0 1 38.5244 15.9199)" class="st3 st4 st5">MAG</text>
		</g>
		<g class="st0">
			<defs>
				<rect id="SVGID_9_" width="56.6" height="22.1"/>
			</defs>
			<clipPath id="SVGID_10_">
				<use xlink:href="#SVGID_9_"  style="overflow:visible;"/>
			</clipPath>
			<g class="st6">
				<text transform="matrix(1 0 0 1 0 15.7412)" class="st7 st4 st8">G</text>
			</g>
		</g>
		<g class="st0">
			<text transform="matrix(1 0 0 1 6.0601 15.7412)" class="st7 st4 st9">ABINETE</text>
		</g>
		<g class="st0">
			<defs>
				<rect id="SVGID_11_" width="56.6" height="22.1"/>
			</defs>
			<clipPath id="SVGID_12_">
				<use xlink:href="#SVGID_11_"  style="overflow:visible;"/>
			</clipPath>
			<g class="st10">
				<text transform="matrix(1 0 0 1 1.6982 20.5083)"><tspan x="0" y="0" class="st11 st12 st13">B</tspan><tspan x="2.4" y="0" class="st11 st12 st13">usin</tspan><tspan x="9" y="0" class="st11 st12 st13">e</tspan><tspan x="10.7" y="0" class="st11 st12 st13">s</tspan><tspan x="12.2" y="0" class="st11 st12 st13">s </tspan><tspan x="14.4" y="0" class="st11 st12 st13">C</tspan><tspan x="17.2" y="0" class="st11 st12 st13">o</tspan><tspan x="19.2" y="0" class="st11 st12 st13">n</tspan><tspan x="21.3" y="0" class="st11 st12 st13">s</tspan><tspan x="22.8" y="0" class="st11 st12 st13">ul</tspan><tspan x="25.8" y="0" class="st11 st12 st13">t</tspan><tspan x="27" y="0" class="st11 st12 st13">i</tspan><tspan x="28" y="0" class="st11 st12 st13">n</tspan><tspan x="30.1" y="0" class="st11 st12 st13">g &amp; </tspan><tspan x="36.5" y="0" class="st11 st12 st13">C</tspan><tspan x="39.3" y="0" class="st11 st12 st13">oa</tspan><tspan x="43" y="0" class="st11 st12 st13">chi</tspan><tspan x="47.8" y="0" class="st11 st12 st13">n</tspan><tspan x="49.8" y="0" class="st11 st12 st13">g</tspan></text>
			</g>
		</g>
	</g>
</g>
</svg>
